HIERARCHY
ROOT Hips
{
  OFFSET 21.6938 97.4507 -20.5101
  CHANNELS 6 Xposition Yposition Zposition Zrotation Xrotation Yrotation
  JOINT Spine
  {
    OFFSET -0.000355721 21.3001 -0.016921
    CHANNELS 3 Zrotation Xrotation Yrotation
    JOINT LeftArm
    {
      OFFSET 13.5181 21.3012 0
      CHANNELS 3 Zrotation Xrotation Yrotation
      JOINT LeftForeArm
      {
        OFFSET 24.5783 0 0
        CHANNELS 3 Zrotation Xrotation Yrotation
        JOINT LeftHand
        {
          OFFSET 24.5783 0 0
          CHANNELS 3 Zrotation Xrotation Yrotation
          End Site
          {
            OFFSET 7.32568 1.52588e-05 0.0169305
          }
        }
      }
    }
    JOINT Head
    {
      OFFSET 0 27.4458 -0.00489235
      CHANNELS 3 Zrotation Xrotation Yrotation
      End Site
      {
        OFFSET 0 0 0
      }
    }
    JOINT RightArm
    {
      OFFSET -13.5174 21.3012 0
      CHANNELS 3 Zrotation Xrotation Yrotation
      JOINT RightForeArm
      {
        OFFSET -24.5783 0 0
        CHANNELS 3 Zrotation Xrotation Yrotation
        JOINT RightHand
        {
          OFFSET -24.5783 0 0
          CHANNELS 3 Zrotation Xrotation Yrotation
          End Site
          {
            OFFSET -7.32568 1.52588e-05 0.0169305
          }
        }
      }
    }
  }
  JOINT RightUpLeg
  {
    OFFSET -8.44614 -9.41038 0.835684
    CHANNELS 3 Zrotation Xrotation Yrotation
    JOINT RightLeg
    {
      OFFSET 0 -40.9639 0
      CHANNELS 3 Zrotation Xrotation Yrotation
      JOINT RightFoot
      {
        OFFSET 0 -40.9639 0
        CHANNELS 3 Zrotation Xrotation Yrotation
        End Site
        {
          OFFSET 0.50614 -9.67405 14.6709
        }
      }
    }
  }
  JOINT LeftUpLeg
  {
    OFFSET 8.44614 -9.41038 0.835684
    CHANNELS 3 Zrotation Xrotation Yrotation
    JOINT LeftLeg
    {
      OFFSET 0 -40.9639 0
      CHANNELS 3 Zrotation Xrotation Yrotation
      JOINT LeftFoot
      {
        OFFSET 0 -40.9639 0
        CHANNELS 3 Zrotation Xrotation Yrotation
        End Site
        {
          OFFSET -0.50614 -9.67405 14.6709
        }
      }
    }
  }
}
MOTION
Frames:	14
Frame Time:	0.0333333
21.6938 97.4507 -20.5101 6.82491 -0.518473 -42.5891 -3.89975 8.3015 0.862549 -76.3145 20.1975 -11.1777 31.7418 -40.4409 -102.492 -0.182711 -5.88362 -1.12129 1.13195 -1.22438 6.0205 66.5626 47.6796 11.8004 -19.2169 -27.3107 81.205 0.872393 0.792464 2.97971 -7.71935 -16.4452 14.8516 1.22177 46.8229 -2.40272 6.07786 -6.53735 -11.0667 6.20058 -21.5346 -0.431209 -2.69664 41.5421 2.64777 -3.49201 3.94625 -1.18998 
22.0028 97.4926 -19.8733 6.80562 -1.2579 -43.7863 -3.55765 8.20102 1.53398 -78.0014 20.589 -10.386 31.8167 -39.8125 -101.482 -0.180677 -5.65092 -1.14665 0.903588 -0.255594 9.54532 62.9931 48.7136 14.7573 -18.7041 -27.6139 79.8491 0.971468 0.16995 3.02697 -8.74534 -15.7014 15.6248 1.2077 46.0928 -2.34062 6.20425 -5.65224 -10.4136 5.89031 -20.9685 1.40652 -2.77251 42.2935 2.76789 -3.48799 4.18023 -1.33917 
22.6042 98.3041 -19.2361 6.53209 -1.46026 -45.9495 -2.13773 8.60661 2.82879 -80.6579 20.9142 -9.19388 31.8753 -39.8769 -101.607 -0.139786 -3.90397 -1.12061 -0.312881 -0.13457 12.6262 60.7971 47.726 17.1405 -18.83 -27.5906 81.3266 0.768872 -0.763055 3.04323 -9.61874 -15.9006 15.7262 1.15031 45.0845 -2.20276 6.52704 -2.23621 -8.38059 6.70244 -21.1935 4.72858 -2.89757 43.7588 3.00692 -3.7347 6.62046 -1.50837 
23.4441 99.7049 -18.7419 6.48652 -1.43089 -48.196 -0.675158 9.63517 3.87664 -82.5462 21.3085 -8.69295 31.8721 -40.8736 -103.255 -0.107488 -2.91045 -1.05689 -1.42248 -1.57682 15.5493 59.1896 45.5696 18.989 -21.2691 -27.7515 85.4927 0.315066 -0.885776 2.8361 -11.2106 -17.2518 14.9078 1.16606 44.0173 -2.04877 5.90008 4.15306 -3.68484 8.22678 -22.5241 8.26308 -3.09592 45.3705 3.21013 -3.07919 12.7517 -3.75055 
24.2881 101.23 -18.2005 6.20255 -1.6133 -50.4882 0.687402 10.9639 4.78175 -82.5733 22.1832 -8.88565 31.6911 -42.3633 -105.766 -0.115997 -3.67816 -0.99786 -2.3361 -2.50267 17.9033 57.0256 44.7343 21.5254 -25.2681 -30.0641 90.1168 -0.192465 -1.17613 2.59881 -13.1829 -17.8624 14.696 1.29207 41.6025 -1.70362 3.86009 11.2556 1.71992 10.2408 -23.5815 11.7504 -3.33423 46.7224 3.4198 -1.8982 20.7137 -6.26786 
24.9967 102.136 -17.5651 5.67776 -1.79683 -52.2326 2.14461 11.7298 5.08648 -80.252 22.6104 -9.98622 31.1731 -44.1932 -109.022 -0.11385 -5.06889 -0.940185 -2.87055 -1.87618 19.5435 53.8433 44.7107 24.6118 -28.1112 -34.1285 95.4057 -0.545191 -3.46314 2.44952 -14.5327 -17.2346 16.5373 1.45518 39.0991 -1.30488 0.77769 13.871 6.97091 12.1676 -24.1026 14.1855 -3.48035 47.181 3.60664 -1.27489 24.8345 -7.26218 
25.5395 102.15 -16.9517 4.93993 -1.60581 -52.7287 3.75979 11.5262 4.72584 -74.867 22.7703 -12.8152 30.3651 -45.9518 -112.331 -0.109999 -6.83383 -0.892289 -2.67993 0.059984 20.3555 50.6346 43.8587 28.1915 -29.4396 -38.2386 100.809 -0.791731 -5.24054 2.35909 -15.1586 -16.0638 17.581 1.34527 38.7126 -1.32662 2.24715 14.0267 4.6214 13.7561 -24.0267 14.5712 -2.8498 46.4363 3.86743 -8.99272 20.5258 4.05633 
25.7713 101.177 -16.3474 4.73859 -2.48918 -52.687 3.22786 10.7301 4.28993 -67.2671 22.1857 -16.9078 29.392 -47.4451 -115.264 -0.120976 -9.85227 -0.897262 -1.18324 2.75396 20.775 48.5294 41.7222 31.9471 -29.5816 -41.7085 105.784 -0.867681 -9.23574 2.30386 -16.6935 -15.0123 17.593 1.22501 42.474 -2.00087 5.51121 9.51372 -1.29004 13.2904 -22.7403 11.9199 -2.30774 42.3341 3.37439 -12.9166 18.4122 10.2867 
26.1344 98.8749 -15.8212 4.36934 -3.18546 -52.2329 3.02542 9.83537 4.00345 -59.6734 20.4032 -22.0827 28.5037 -48.4352 -117.207 -0.115328 -13.2671 -0.916615 0.161841 4.54501 20.419 46.949 38.5624 34.8686 -29.1895 -44.4927 110.164 -0.910547 -12.8257 2.26891 -17.895 -14.4998 17.3223 1.38566 48.0803 -2.76988 7.27099 9.26406 -4.11506 12.9956 -21.5654 6.49426 -2.61654 40.8542 2.96866 -8.1737 16.4266 3.7984 
26.4116 96.3134 -15.6029 4.06509 -5.16492 -51.6435 0.87995 10.2139 3.83043 -52.0456 17.1654 -28.1659 27.843 -48.8594 -117.9 -0.0546682 -15.6147 -0.977902 2.60583 4.67334 20.1221 46.2284 34.0258 38.1032 -28.1721 -46.7856 114.189 -0.841301 -17.0733 2.26259 -19.6561 -12.8005 18.1734 1.92043 52.0038 -3.38777 5.19677 8.4751 -0.30843 12.1104 -21.0275 3.40541 -3.04965 43.2995 3.13893 -2.90636 11.9894 -4.05614 
26.4356 94.0816 -16.1636 4.15802 -7.71162 -51.6253 -3.07217 11.4699 4.91327 -45.3709 13.6607 -34.4462 27.6977 -48.6681 -117.106 0.0009251 -15.5945 -1.03238 5.62438 4.39175 19.156 47.04 31.362 40.9034 -27.3826 -48.3779 117.195 -0.857467 -19.1937 2.26469 -21.0423 -12.0508 18.8881 2.33089 55.4849 -4.21811 5.49293 1.96627 -2.49723 11.4608 -21.5686 6.28825 -3.36168 47.3715 3.77611 -1.77228 8.64244 -6.35928 
26.4758 92.9333 -17.0428 3.34243 -7.35981 -51.7363 -2.86837 12.0135 5.92961 -42.5246 11.7374 -39.608 27.7711 -48.2843 -115.932 0.0444982 -13.9778 -1.08328 5.71676 4.37572 18.049 47.0427 30.3076 42.8414 -27.1767 -49.1038 118.48 -0.850172 -20.4808 2.35864 -19.0042 -12.8071 17.7626 2.51876 58.2518 -4.61735 6.40033 -1.92356 -6.47981 13.212 -23.0064 7.60918 -3.62462 50.5113 4.49265 -2.21701 6.56296 -5.65835 
26.3173 92.8514 -18.2494 2.8373 -7.08829 -51.2679 -2.87073 12.1228 6.15639 -40.8638 11.7031 -43.3078 27.7444 -48.2143 -115.543 0.0501731 -14.1766 -1.13597 5.18628 6.47577 17.8796 46.76 30.6324 44.567 -26.8458 -49.564 119.377 -0.805785 -23.0831 2.37853 -17.6317 -13.5191 15.6038 2.7092 59.7961 -4.88235 7.02775 -3.05508 -9.12275 13.4492 -23.0801 4.49178 -3.44154 49.5461 4.24063 -2.2068 7.67396 -5.63563 
25.8968 94.0067 -19.8929 3.19023 -7.0619 -50.6874 -4.36451 11.9418 6.35049 -39.6798 12.4897 -45.8064 27.7392 -48.1922 -115.332 0.0612121 -13.918 -1.16071 5.05157 9.8131 18.045 47.0394 31.4845 46.6144 -27.0218 -49.4408 118.926 -0.851652 -23.3914 2.37238 -17.3217 -13.8577 14.2082 2.58873 58.9217 -4.69743 6.92149 -1.8245 -7.95854 12.9156 -22.8183 2.61069 -3.01785 46.89 3.70274 -4.55223 10.9278 -1.4744 
